<?xml version="1.0" encoding="UTF-8"?>
<svg xmlns="http://www.w3.org/2000/svg" id="Layer_1" data-name="Layer 1" viewBox="0 0 24 24">
  <path d="m3,8.984c0,3.309,2.691,6,6,6,3.252,0,6-2.748,6-6v-.984h2v-3h-2c0-1.846-1.012-3.44-2.5-4.306v3.306h-2V.05c-.167-.017-.329-.05-.5-.05h-2c-.171,0-.333.034-.5.05v3.95h-2V.694c-1.488.866-2.5,2.46-2.5,4.306H1v3h2v.984Zm9,0c0,1.626-1.374,3-3,3-1.654,0-3-1.346-3-3v-.984h6v.984Zm1,10.016h-7.5c-1.378,0-2.5,1.121-2.5,2.5v2.5H0v-2.5c0-3.032,2.467-5.5,5.5-5.5h7.5v3Zm6,2h5v3h-5v-3Zm5-10v3h-5v-3h5Zm-12,10h5v3h-5v-3Zm3-5h5v3h-5v-3Zm7,0h2v3h-2v-3Z"/>
</svg>
