<?xml version="1.0" encoding="UTF-8"?>
<svg xmlns="http://www.w3.org/2000/svg" id="Layer_1" data-name="Layer 1" viewBox="0 0 24 24">
  <path d="M8.491,14c-.86-.016-1.707-.375-2.324-.986l.703-.71c.43,.426,1.042,.686,1.639,.697,.61-.009,1.181-.236,1.654-.713l.711,.703c-.655,.662-1.458,1.01-2.327,1.01h-.056ZM24,4.269V15.5c0,1.379-1.122,2.5-2.5,2.5-.111,0-.218-.019-.325-.033-1.586,3.672-5.151,6.033-9.175,6.033s-7.588-2.36-9.175-6.033c-.108,.014-.214,.033-.325,.033-1.378,0-2.5-1.121-2.5-2.5V4.269c0-.618,.229-1.214,.645-1.676L2.951,0h1.343L1.387,3.263c-.25,.277-.387,.635-.387,1.006V15.5c0,.827,.673,1.5,1.5,1.5s1.5-.673,1.5-1.5V7.5h.007c0-.57,.19-1.14,.577-1.601l3.098-3.206,.719,.695-3.074,3.179c-.225,.269-.335,.614-.327,.96v.005c.009,.346,.135,.694,.382,.969,.55,.614,1.499,.667,2.113,.116l4.021-3.7c.308-.283,.484-.685,.484-1.104V0h1V3.814c0,.446-.132,.874-.353,1.253l3.863,3.555c.61,.547,1.558,.495,2.108-.12,.494-.551,.507-1.394,.032-1.96l-3.051-3.153,.719-.695,3.074,3.179c.399,.474,.594,1.053,.598,1.627h.01V15.5c0,.827,.673,1.5,1.5,1.5s1.5-.673,1.5-1.5V4.269c0-.371-.137-.729-.387-1.006l-2.908-3.263h1.343l2.307,2.593c.416,.462,.645,1.058,.645,1.676Zm-3.785,13.365c-.725-.438-1.215-1.226-1.215-2.133v-6.004c-.44,.331-.967,.503-1.498,.503-.593,0-1.188-.21-1.664-.636l-3.838-3.532-3.833,3.528c-.479,.429-1.076,.64-1.671,.64-.53,0-1.056-.172-1.496-.502v6.004c0,.907-.49,1.695-1.215,2.133,1.443,3.265,4.619,5.367,8.215,5.367s6.772-2.102,8.215-5.367Zm-5.206-4.633c-.596-.011-1.208-.271-1.639-.697l-.703,.71c.617,.611,1.464,.971,2.324,.986h.056c.868,0,1.671-.349,2.327-1.01l-.711-.703c-.473,.477-1.063,.705-1.654,.713Zm-3.009,5c-2.056,0-3.781-1.511-3.798-1.525l-.666,.746c.081,.072,2.02,1.779,4.463,1.779s4.382-1.707,4.463-1.779l-.666-.746c-.017,.015-1.742,1.525-3.798,1.525Z"/>
</svg>
